<svg xmlns="http://www.w3.org/2000/svg" xmlns:xlink="http://www.w3.org/1999/xlink" width="500" zoomAndPan="magnify" viewBox="0 0 375 374.999991" height="500" preserveAspectRatio="xMidYMid meet" version="1.0"><defs><clipPath id="id1"><path d="M 21.121094 0.75 L 354.121094 0.75 L 354.121094 374.25 L 21.121094 374.25 Z M 21.121094 0.75 " clip-rule="nonzero"/></clipPath><clipPath id="id2"><path d="M 209.484375 25.199219 L 326.019531 92.4375 C 328.378906 90.796875 331.261719 89.84375 334.351562 89.84375 C 336.316406 89.84375 338.222656 90.238281 339.953125 90.96875 C 341.757812 91.710938 343.363281 92.796875 344.710938 94.144531 C 346.046875 95.476562 347.136719 97.097656 347.890625 98.898438 C 348.605469 100.640625 349.015625 102.53125 349.015625 104.496094 C 349.015625 106.460938 348.621094 108.363281 347.890625 110.09375 C 347.148438 111.898438 346.058594 113.503906 344.710938 114.851562 C 343.722656 115.839844 342.585938 116.691406 341.335938 117.371094 L 341.324219 117.359375 C 341.101562 117.484375 340.867188 117.59375 340.644531 117.703125 L 340.644531 252.105469 C 341.421875 252.4375 342.214844 252.835938 342.992188 253.292969 C 345.589844 254.785156 347.777344 256.75 349.511719 259 C 351.304688 261.335938 352.601562 263.980469 353.34375 266.769531 C 356.496094 278.507812 349.484375 290.816406 337.617188 293.976562 C 334.832031 294.71875 331.890625 294.929688 328.960938 294.535156 C 326.523438 294.210938 324.101562 293.484375 321.789062 292.308594 L 321.703125 292.308594 L 320.726562 291.753906 C 319.960938 291.308594 319.21875 290.816406 318.5 290.285156 L 205.328125 355.570312 C 205.351562 355.914062 205.351562 356.25 205.351562 356.59375 C 205.351562 358.964844 204.871094 361.238281 204.003906 363.339844 L 204.003906 363.351562 C 203.101562 365.527344 201.792969 367.46875 200.171875 369.085938 C 198.566406 370.691406 196.613281 372 194.433594 372.902344 C 192.332031 373.769531 190.058594 374.25 187.671875 374.25 C 185.296875 374.25 183.011719 373.769531 180.910156 372.902344 C 178.71875 372 176.777344 370.691406 175.171875 369.085938 C 173.5625 367.480469 172.253906 365.527344 171.351562 363.351562 C 170.484375 361.265625 170.003906 358.980469 170.003906 356.59375 C 170.003906 356.324219 170.015625 356.050781 170.027344 355.765625 L 56.832031 290.457031 C 56.078125 291.023438 55.285156 291.554688 54.46875 292.027344 L 54.457031 292.039062 L 54.445312 292.039062 L 54.433594 292.027344 C 51.824219 293.519531 49.042969 294.433594 46.234375 294.804688 C 43.304688 295.1875 40.363281 294.992188 37.59375 294.25 C 34.796875 293.507812 32.140625 292.210938 29.816406 290.417969 C 27.578125 288.703125 25.613281 286.503906 24.101562 283.882812 L 24.078125 283.835938 L 24.066406 283.847656 C 22.582031 281.265625 21.679688 278.484375 21.308594 275.667969 C 20.925781 272.738281 21.136719 269.8125 21.878906 267.042969 C 22.621094 264.25 23.917969 261.605469 25.710938 259.273438 C 27.429688 257.035156 29.628906 255.070312 32.25 253.5625 L 33.226562 253.007812 L 33.277344 253.007812 C 33.660156 252.808594 34.042969 252.625 34.402344 252.464844 L 34.402344 118 C 34.082031 117.867188 33.773438 117.730469 33.464844 117.570312 C 32.015625 116.851562 30.730469 115.914062 29.65625 114.839844 C 28.320312 113.503906 27.242188 111.898438 26.488281 110.082031 C 25.773438 108.339844 25.363281 106.449219 25.363281 104.484375 C 25.363281 102.53125 25.761719 100.640625 26.488281 98.898438 L 26.488281 98.886719 C 27.230469 97.097656 28.320312 95.476562 29.667969 94.144531 C 32.3125 91.5 35.984375 89.855469 40.027344 89.855469 C 41.996094 89.855469 43.898438 90.25 45.628906 90.980469 C 46.71875 91.425781 47.730469 92.007812 48.660156 92.671875 L 165.242188 25.410156 C 165.15625 24.621094 165.105469 23.804688 165.105469 22.988281 C 165.105469 20.011719 165.714844 17.132812 166.800781 14.5 L 166.800781 14.488281 C 168.765625 9.730469 171.054688 7.753906 174.800781 4.652344 C 176.0625 3.789062 177.421875 3.058594 178.84375 2.46875 C 181.476562 1.378906 184.359375 0.773438 187.351562 0.773438 C 190.332031 0.773438 193.210938 1.378906 195.84375 2.46875 L 195.855469 2.46875 C 198.589844 3.589844 201.039062 5.246094 203.078125 7.285156 C 205.117188 9.324219 206.773438 11.769531 207.898438 14.5 L 207.898438 14.515625 C 208.988281 17.144531 209.59375 20.011719 209.59375 23 C 209.59375 23.742188 209.558594 24.484375 209.484375 25.226562 Z M 30.976562 275.285156 Z M 56.164062 273.554688 C 56.917969 258.667969 35.503906 255.007812 31.273438 269.316406 C 31.027344 270.28125 30.878906 271.28125 30.828125 272.28125 C 30.78125 273.28125 30.828125 274.296875 30.976562 275.296875 C 33.761719 289.925781 55.421875 288.441406 56.164062 273.566406 Z M 174.949219 22.261719 C 174.898438 23.261719 174.949219 24.273438 175.097656 25.273438 C 175.703125 28.425781 177.421875 31.105469 179.808594 32.949219 C 182.195312 34.789062 185.238281 35.789062 188.453125 35.578125 C 191.664062 35.355469 194.546875 33.960938 196.660156 31.8125 C 198.777344 29.660156 200.136719 26.757812 200.296875 23.546875 C 200.457031 20.332031 199.40625 17.304688 197.515625 14.957031 C 195.621094 12.597656 192.902344 10.917969 189.738281 10.375 C 186.558594 9.832031 183.429688 10.523438 180.871094 12.117188 C 178.3125 13.710938 176.320312 16.21875 175.40625 19.296875 C 175.160156 20.257812 175.011719 21.261719 174.960938 22.261719 Z M 319.277344 271.949219 C 319.230469 272.949219 319.277344 273.960938 319.425781 274.964844 C 320.035156 278.113281 321.75 280.792969 324.136719 282.636719 C 326.523438 284.476562 329.566406 285.476562 332.78125 285.265625 C 335.996094 285.046875 338.875 283.648438 340.992188 281.5 C 343.105469 279.347656 344.464844 276.445312 344.625 273.234375 C 344.785156 270.019531 343.734375 266.992188 341.84375 264.644531 C 339.953125 262.285156 337.230469 260.605469 334.066406 260.0625 C 330.890625 259.519531 327.761719 260.210938 325.203125 261.804688 C 322.640625 263.398438 320.652344 265.90625 319.738281 268.984375 C 319.488281 269.945312 319.339844 270.949219 319.292969 271.949219 Z M 54.335938 101.335938 C 54.558594 102.359375 54.679688 103.410156 54.679688 104.484375 C 54.679688 106.449219 54.285156 108.351562 53.554688 110.082031 C 52.8125 111.886719 51.726562 113.492188 50.378906 114.839844 C 49.140625 116.074219 47.683594 117.085938 46.050781 117.828125 C 45.640625 118.015625 45.234375 118.175781 44.800781 118.324219 L 44.800781 250.636719 C 45.640625 250.683594 46.457031 250.796875 47.273438 250.933594 L 170.558594 37.554688 C 169.929688 36.839844 169.347656 36.074219 168.828125 35.296875 L 54.320312 101.359375 Z M 168.382812 191.378906 L 168.71875 191.550781 L 168.730469 191.550781 C 169.460938 191.933594 170.152344 192.378906 170.792969 192.875 L 246.21875 149.359375 C 246.042969 148.46875 245.957031 147.566406 245.957031 146.679688 C 245.957031 144.726562 246.355469 142.835938 247.082031 141.09375 L 247.082031 141.082031 C 247.75 139.460938 248.691406 138.003906 249.851562 136.757812 L 195.957031 43.472656 C 195.277344 43.757812 194.582031 44.019531 193.878906 44.226562 L 193.867188 44.226562 C 192.296875 44.710938 190.675781 45.019531 189.019531 45.15625 L 168.394531 191.390625 Z M 176.246094 201.671875 C 176.433594 202.597656 176.519531 203.539062 176.519531 204.488281 L 176.519531 204.859375 L 313.457031 260.074219 C 314.382812 258.691406 315.433594 257.457031 316.582031 256.367188 C 317.101562 255.886719 317.632812 255.417969 318.191406 254.984375 L 263.863281 160.949219 C 262.824219 161.183594 261.734375 161.308594 260.632812 161.308594 C 258.667969 161.308594 256.765625 160.910156 255.035156 160.183594 C 253.785156 159.664062 252.636719 158.996094 251.609375 158.191406 L 176.273438 201.660156 Z M 172.601562 214.445312 C 172.476562 214.582031 172.351562 214.71875 172.230469 214.84375 C 169.582031 217.484375 165.910156 219.128906 161.867188 219.128906 C 159.902344 219.128906 157.996094 218.734375 156.265625 218.003906 C 154.769531 217.386719 153.410156 216.546875 152.234375 215.523438 L 64.558594 266.105469 C 64.746094 266.683594 64.90625 267.265625 65.042969 267.859375 L 65.042969 267.871094 C 65.152344 268.367188 65.253906 268.847656 65.328125 269.339844 L 308.707031 269.339844 L 172.601562 214.460938 Z M 147.339844 206.402344 C 147.253906 205.761719 147.203125 205.117188 147.203125 204.488281 C 147.203125 202.535156 147.597656 200.644531 148.328125 198.902344 L 148.328125 198.890625 C 149.070312 197.101562 150.160156 195.480469 151.507812 194.148438 C 152.816406 192.835938 154.386719 191.773438 156.144531 191.035156 C 156.761719 190.773438 157.390625 190.550781 158.046875 190.378906 L 178.660156 44.203125 L 56.808594 255.109375 C 57.164062 255.378906 57.5 255.652344 57.847656 255.949219 C 58.328125 256.355469 58.785156 256.800781 59.242188 257.257812 L 147.351562 206.429688 Z M 260.609375 132.039062 C 262.574219 132.039062 264.480469 132.433594 266.210938 133.160156 C 268.015625 133.902344 269.625 134.988281 270.972656 136.335938 C 272.304688 137.671875 273.394531 139.289062 274.148438 141.09375 C 274.867188 142.835938 275.273438 144.726562 275.273438 146.691406 C 275.273438 148.65625 274.878906 150.558594 274.148438 152.289062 C 273.703125 153.351562 273.148438 154.339844 272.492188 155.253906 L 327.636719 250.695312 C 328.492188 250.535156 329.355469 250.414062 330.234375 250.351562 L 330.234375 118.53125 C 329.726562 118.382812 329.21875 118.199219 328.738281 118 C 326.921875 117.246094 325.3125 116.160156 323.976562 114.839844 C 322.640625 113.503906 321.566406 111.898438 320.8125 110.082031 C 320.09375 108.339844 319.6875 106.449219 319.6875 104.484375 C 319.6875 103.296875 319.835938 102.125 320.121094 100.988281 L 205.960938 35.121094 L 204.390625 37.371094 L 259.125 132.109375 C 259.621094 132.0625 260.117188 132.039062 260.609375 132.039062 Z M 64.484375 279.71875 C 64.199219 280.585938 63.855469 281.449219 63.445312 282.300781 L 173.503906 345.796875 L 175.207031 344.089844 C 178.410156 340.890625 182.824219 338.914062 187.710938 338.914062 C 190.070312 338.914062 192.359375 339.394531 194.460938 340.261719 L 194.472656 340.261719 C 196.648438 341.164062 198.589844 342.472656 200.210938 344.089844 C 200.714844 344.597656 201.210938 345.152344 201.65625 345.734375 L 311.847656 282.167969 C 311.464844 281.363281 311.117188 280.546875 310.835938 279.71875 Z M 64.484375 279.71875 " clip-rule="nonzero"/></clipPath><linearGradient x1="15.768803" gradientTransform="matrix(1.236441, 0, 0, 1.235528, 21.135901, 0.75)" y1="314.83592" x2="267.203457" gradientUnits="userSpaceOnUse" y2="-1.654042" id="id3"><stop stop-opacity="1" stop-color="rgb(74.023438%, 1.515198%, 80.296326%)" offset="0"/><stop stop-opacity="1" stop-color="rgb(73.553467%, 1.939392%, 80.380249%)" offset="0.00390625"/><stop stop-opacity="1" stop-color="rgb(73.083496%, 2.365112%, 80.464172%)" offset="0.0078125"/><stop stop-opacity="1" stop-color="rgb(72.612%, 2.790833%, 80.548096%)" offset="0.0117188"/><stop stop-opacity="1" stop-color="rgb(72.142029%, 3.216553%, 80.632019%)" offset="0.015625"/><stop stop-opacity="1" stop-color="rgb(71.672058%, 3.640747%, 80.714417%)" offset="0.0195312"/><stop stop-opacity="1" stop-color="rgb(71.202087%, 4.066467%, 80.79834%)" offset="0.0234375"/><stop stop-opacity="1" stop-color="rgb(70.730591%, 4.492188%, 80.882263%)" offset="0.0273438"/><stop stop-opacity="1" stop-color="rgb(70.26062%, 4.917908%, 80.966187%)" offset="0.03125"/><stop stop-opacity="1" stop-color="rgb(69.790649%, 5.343628%, 81.048584%)" offset="0.0351563"/><stop stop-opacity="1" stop-color="rgb(69.320679%, 5.769348%, 81.132507%)" offset="0.0390625"/><stop stop-opacity="1" stop-color="rgb(68.849182%, 6.193542%, 81.216431%)" offset="0.0429688"/><stop stop-opacity="1" stop-color="rgb(68.379211%, 6.619263%, 81.300354%)" offset="0.046875"/><stop stop-opacity="1" stop-color="rgb(67.909241%, 7.044983%, 81.382751%)" offset="0.0507812"/><stop stop-opacity="1" stop-color="rgb(67.43927%, 7.470703%, 81.466675%)" offset="0.0546875"/><stop stop-opacity="1" stop-color="rgb(66.969299%, 7.894897%, 81.550598%)" offset="0.0585937"/><stop stop-opacity="1" stop-color="rgb(66.499329%, 8.320618%, 81.634521%)" offset="0.0625"/><stop stop-opacity="1" stop-color="rgb(66.027832%, 8.746338%, 81.716919%)" offset="0.0664062"/><stop stop-opacity="1" stop-color="rgb(65.557861%, 9.172058%, 81.800842%)" offset="0.0703125"/><stop stop-opacity="1" stop-color="rgb(65.087891%, 9.597778%, 81.884766%)" offset="0.0742187"/><stop stop-opacity="1" stop-color="rgb(64.61792%, 10.023499%, 81.968689%)" offset="0.078125"/><stop stop-opacity="1" stop-color="rgb(64.146423%, 10.447693%, 82.052612%)" offset="0.0820312"/><stop stop-opacity="1" stop-color="rgb(63.676453%, 10.873413%, 82.136536%)" offset="0.0859375"/><stop stop-opacity="1" stop-color="rgb(63.206482%, 11.299133%, 82.218933%)" offset="0.0898438"/><stop stop-opacity="1" stop-color="rgb(62.736511%, 11.724854%, 82.302856%)" offset="0.09375"/><stop stop-opacity="1" stop-color="rgb(62.265015%, 12.149048%, 82.38678%)" offset="0.0976562"/><stop stop-opacity="1" stop-color="rgb(61.795044%, 12.574768%, 82.470703%)" offset="0.101562"/><stop stop-opacity="1" stop-color="rgb(61.325073%, 13.000488%, 82.553101%)" offset="0.105469"/><stop stop-opacity="1" stop-color="rgb(60.855103%, 13.426208%, 82.637024%)" offset="0.109375"/><stop stop-opacity="1" stop-color="rgb(60.383606%, 13.851929%, 82.720947%)" offset="0.113281"/><stop stop-opacity="1" stop-color="rgb(59.913635%, 14.277649%, 82.804871%)" offset="0.117188"/><stop stop-opacity="1" stop-color="rgb(59.443665%, 14.701843%, 82.887268%)" offset="0.121094"/><stop stop-opacity="1" stop-color="rgb(58.973694%, 15.127563%, 82.971191%)" offset="0.125"/><stop stop-opacity="1" stop-color="rgb(58.502197%, 15.553284%, 83.055115%)" offset="0.128906"/><stop stop-opacity="1" stop-color="rgb(58.032227%, 15.979004%, 83.139038%)" offset="0.132812"/><stop stop-opacity="1" stop-color="rgb(57.562256%, 16.403198%, 83.221436%)" offset="0.136719"/><stop stop-opacity="1" stop-color="rgb(57.092285%, 16.828918%, 83.305359%)" offset="0.140625"/><stop stop-opacity="1" stop-color="rgb(56.620789%, 17.254639%, 83.389282%)" offset="0.144531"/><stop stop-opacity="1" stop-color="rgb(56.150818%, 17.680359%, 83.473206%)" offset="0.148437"/><stop stop-opacity="1" stop-color="rgb(55.680847%, 18.106079%, 83.557129%)" offset="0.152344"/><stop stop-opacity="1" stop-color="rgb(55.210876%, 18.531799%, 83.641052%)" offset="0.15625"/><stop stop-opacity="1" stop-color="rgb(54.740906%, 18.955994%, 83.72345%)" offset="0.160156"/><stop stop-opacity="1" stop-color="rgb(54.270935%, 19.381714%, 83.807373%)" offset="0.164062"/><stop stop-opacity="1" stop-color="rgb(53.799438%, 19.807434%, 83.891296%)" offset="0.167969"/><stop stop-opacity="1" stop-color="rgb(53.329468%, 20.233154%, 83.97522%)" offset="0.171875"/><stop stop-opacity="1" stop-color="rgb(52.859497%, 20.657349%, 84.057617%)" offset="0.175781"/><stop stop-opacity="1" stop-color="rgb(52.389526%, 21.083069%, 84.141541%)" offset="0.179687"/><stop stop-opacity="1" stop-color="rgb(51.91803%, 21.508789%, 84.225464%)" offset="0.183594"/><stop stop-opacity="1" stop-color="rgb(51.448059%, 21.934509%, 84.309387%)" offset="0.1875"/><stop stop-opacity="1" stop-color="rgb(50.978088%, 22.360229%, 84.391785%)" offset="0.191406"/><stop stop-opacity="1" stop-color="rgb(50.508118%, 22.78595%, 84.475708%)" offset="0.195312"/><stop stop-opacity="1" stop-color="rgb(50.036621%, 23.210144%, 84.559631%)" offset="0.199219"/><stop stop-opacity="1" stop-color="rgb(49.56665%, 23.635864%, 84.643555%)" offset="0.203125"/><stop stop-opacity="1" stop-color="rgb(49.09668%, 24.061584%, 84.725952%)" offset="0.207031"/><stop stop-opacity="1" stop-color="rgb(48.626709%, 24.487305%, 84.809875%)" offset="0.210937"/><stop stop-opacity="1" stop-color="rgb(48.155212%, 24.911499%, 84.893799%)" offset="0.214844"/><stop stop-opacity="1" stop-color="rgb(47.685242%, 25.337219%, 84.977722%)" offset="0.21875"/><stop stop-opacity="1" stop-color="rgb(47.215271%, 25.762939%, 85.061646%)" offset="0.222656"/><stop stop-opacity="1" stop-color="rgb(46.7453%, 26.18866%, 85.145569%)" offset="0.226562"/><stop stop-opacity="1" stop-color="rgb(46.273804%, 26.612854%, 85.227966%)" offset="0.230469"/><stop stop-opacity="1" stop-color="rgb(45.803833%, 27.038574%, 85.31189%)" offset="0.234375"/><stop stop-opacity="1" stop-color="rgb(45.333862%, 27.464294%, 85.395813%)" offset="0.238281"/><stop stop-opacity="1" stop-color="rgb(44.863892%, 27.890015%, 85.479736%)" offset="0.242187"/><stop stop-opacity="1" stop-color="rgb(44.393921%, 28.315735%, 85.562134%)" offset="0.246094"/><stop stop-opacity="1" stop-color="rgb(43.92395%, 28.741455%, 85.646057%)" offset="0.25"/><stop stop-opacity="1" stop-color="rgb(43.452454%, 29.165649%, 85.72998%)" offset="0.253906"/><stop stop-opacity="1" stop-color="rgb(42.982483%, 29.59137%, 85.813904%)" offset="0.257812"/><stop stop-opacity="1" stop-color="rgb(42.512512%, 30.01709%, 85.896301%)" offset="0.261719"/><stop stop-opacity="1" stop-color="rgb(42.042542%, 30.44281%, 85.980225%)" offset="0.265625"/><stop stop-opacity="1" stop-color="rgb(41.571045%, 30.867004%, 86.064148%)" offset="0.269531"/><stop stop-opacity="1" stop-color="rgb(41.101074%, 31.292725%, 86.148071%)" offset="0.273438"/><stop stop-opacity="1" stop-color="rgb(40.631104%, 31.718445%, 86.230469%)" offset="0.277344"/><stop stop-opacity="1" stop-color="rgb(40.161133%, 32.144165%, 86.314392%)" offset="0.28125"/><stop stop-opacity="1" stop-color="rgb(39.689636%, 32.569885%, 86.398315%)" offset="0.285156"/><stop stop-opacity="1" stop-color="rgb(39.219666%, 32.995605%, 86.482239%)" offset="0.289062"/><stop stop-opacity="1" stop-color="rgb(38.749695%, 33.4198%, 86.566162%)" offset="0.292969"/><stop stop-opacity="1" stop-color="rgb(38.279724%, 33.84552%, 86.650085%)" offset="0.296875"/><stop stop-opacity="1" stop-color="rgb(37.857056%, 34.22699%, 86.726379%)" offset="0.300781"/><stop stop-opacity="1" stop-color="rgb(37.435913%, 34.609985%, 86.802673%)" offset="0.304688"/><stop stop-opacity="1" stop-color="rgb(37.034607%, 34.97467%, 86.875916%)" offset="0.308594"/><stop stop-opacity="1" stop-color="rgb(36.633301%, 35.339355%, 86.950684%)" offset="0.3125"/><stop stop-opacity="1" stop-color="rgb(36.231995%, 35.702515%, 87.023926%)" offset="0.316406"/><stop stop-opacity="1" stop-color="rgb(35.832214%, 36.0672%, 87.098694%)" offset="0.320313"/><stop stop-opacity="1" stop-color="rgb(35.430908%, 36.430359%, 87.171936%)" offset="0.324219"/><stop stop-opacity="1" stop-color="rgb(35.029602%, 36.795044%, 87.246704%)" offset="0.328125"/><stop stop-opacity="1" stop-color="rgb(34.628296%, 37.158203%, 87.319946%)" offset="0.332031"/><stop stop-opacity="1" stop-color="rgb(34.228516%, 37.522888%, 87.394714%)" offset="0.335938"/><stop stop-opacity="1" stop-color="rgb(33.827209%, 37.887573%, 87.467957%)" offset="0.339844"/><stop stop-opacity="1" stop-color="rgb(33.425903%, 38.252258%, 87.541199%)" offset="0.34375"/><stop stop-opacity="1" stop-color="rgb(33.024597%, 38.615417%, 87.614441%)" offset="0.347656"/><stop stop-opacity="1" stop-color="rgb(32.623291%, 38.980103%, 87.689209%)" offset="0.351562"/><stop stop-opacity="1" stop-color="rgb(32.221985%, 39.343262%, 87.762451%)" offset="0.355469"/><stop stop-opacity="1" stop-color="rgb(31.822205%, 39.707947%, 87.837219%)" offset="0.359375"/><stop stop-opacity="1" stop-color="rgb(31.420898%, 40.071106%, 87.910461%)" offset="0.363281"/><stop stop-opacity="1" stop-color="rgb(31.019592%, 40.435791%, 87.985229%)" offset="0.367188"/><stop stop-opacity="1" stop-color="rgb(30.618286%, 40.79895%, 88.058472%)" offset="0.371094"/><stop stop-opacity="1" stop-color="rgb(30.21698%, 41.163635%, 88.13324%)" offset="0.375"/><stop stop-opacity="1" stop-color="rgb(29.815674%, 41.52832%, 88.206482%)" offset="0.378906"/><stop stop-opacity="1" stop-color="rgb(29.415894%, 41.893005%, 88.279724%)" offset="0.382813"/><stop stop-opacity="1" stop-color="rgb(29.014587%, 42.256165%, 88.352966%)" offset="0.386719"/><stop stop-opacity="1" stop-color="rgb(28.613281%, 42.62085%, 88.427734%)" offset="0.390625"/><stop stop-opacity="1" stop-color="rgb(28.211975%, 42.984009%, 88.500977%)" offset="0.394531"/><stop stop-opacity="1" stop-color="rgb(27.810669%, 43.348694%, 88.575745%)" offset="0.398438"/><stop stop-opacity="1" stop-color="rgb(27.409363%, 43.711853%, 88.648987%)" offset="0.402344"/><stop stop-opacity="1" stop-color="rgb(27.009583%, 44.076538%, 88.723755%)" offset="0.40625"/><stop stop-opacity="1" stop-color="rgb(26.608276%, 44.441223%, 88.796997%)" offset="0.410156"/><stop stop-opacity="1" stop-color="rgb(26.20697%, 44.805908%, 88.871765%)" offset="0.414063"/><stop stop-opacity="1" stop-color="rgb(25.805664%, 45.169067%, 88.945007%)" offset="0.417969"/><stop stop-opacity="1" stop-color="rgb(25.405884%, 45.533752%, 89.019775%)" offset="0.421875"/><stop stop-opacity="1" stop-color="rgb(25.004578%, 45.896912%, 89.093018%)" offset="0.425781"/><stop stop-opacity="1" stop-color="rgb(24.603271%, 46.261597%, 89.16626%)" offset="0.429688"/><stop stop-opacity="1" stop-color="rgb(24.201965%, 46.624756%, 89.239502%)" offset="0.433594"/><stop stop-opacity="1" stop-color="rgb(23.800659%, 46.989441%, 89.31427%)" offset="0.4375"/><stop stop-opacity="1" stop-color="rgb(23.399353%, 47.3526%, 89.387512%)" offset="0.441406"/><stop stop-opacity="1" stop-color="rgb(22.999573%, 47.717285%, 89.46228%)" offset="0.445313"/><stop stop-opacity="1" stop-color="rgb(22.598267%, 48.08197%, 89.535522%)" offset="0.449219"/><stop stop-opacity="1" stop-color="rgb(22.19696%, 48.446655%, 89.610291%)" offset="0.453125"/><stop stop-opacity="1" stop-color="rgb(21.795654%, 48.809814%, 89.683533%)" offset="0.457031"/><stop stop-opacity="1" stop-color="rgb(21.394348%, 49.1745%, 89.758301%)" offset="0.460938"/><stop stop-opacity="1" stop-color="rgb(20.993042%, 49.537659%, 89.831543%)" offset="0.464844"/><stop stop-opacity="1" stop-color="rgb(20.593262%, 49.902344%, 89.906311%)" offset="0.46875"/><stop stop-opacity="1" stop-color="rgb(20.191956%, 50.265503%, 89.979553%)" offset="0.472656"/><stop stop-opacity="1" stop-color="rgb(19.790649%, 50.630188%, 90.052795%)" offset="0.476563"/><stop stop-opacity="1" stop-color="rgb(19.389343%, 50.994873%, 90.126038%)" offset="0.480469"/><stop stop-opacity="1" stop-color="rgb(18.988037%, 51.359558%, 90.200806%)" offset="0.484375"/><stop stop-opacity="1" stop-color="rgb(18.586731%, 51.722717%, 90.274048%)" offset="0.488281"/><stop stop-opacity="1" stop-color="rgb(18.186951%, 52.087402%, 90.348816%)" offset="0.492188"/><stop stop-opacity="1" stop-color="rgb(17.785645%, 52.450562%, 90.422058%)" offset="0.496094"/><stop stop-opacity="1" stop-color="rgb(17.384338%, 52.815247%, 90.496826%)" offset="0.5"/><stop stop-opacity="1" stop-color="rgb(16.983032%, 53.178406%, 90.570068%)" offset="0.503906"/><stop stop-opacity="1" stop-color="rgb(16.581726%, 53.543091%, 90.644836%)" offset="0.507812"/><stop stop-opacity="1" stop-color="rgb(16.18042%, 53.90625%, 90.718079%)" offset="0.511719"/><stop stop-opacity="1" stop-color="rgb(15.78064%, 54.270935%, 90.792847%)" offset="0.515625"/><stop stop-opacity="1" stop-color="rgb(15.379333%, 54.63562%, 90.866089%)" offset="0.519531"/><stop stop-opacity="1" stop-color="rgb(14.978027%, 55.000305%, 90.939331%)" offset="0.523438"/><stop stop-opacity="1" stop-color="rgb(14.576721%, 55.363464%, 91.012573%)" offset="0.527344"/><stop stop-opacity="1" stop-color="rgb(14.176941%, 55.728149%, 91.087341%)" offset="0.53125"/><stop stop-opacity="1" stop-color="rgb(13.775635%, 56.091309%, 91.160583%)" offset="0.535156"/><stop stop-opacity="1" stop-color="rgb(13.374329%, 56.455994%, 91.235352%)" offset="0.539062"/><stop stop-opacity="1" stop-color="rgb(12.973022%, 56.819153%, 91.308594%)" offset="0.542969"/><stop stop-opacity="1" stop-color="rgb(12.571716%, 57.183838%, 91.383362%)" offset="0.546875"/><stop stop-opacity="1" stop-color="rgb(12.17041%, 57.548523%, 91.456604%)" offset="0.550781"/><stop stop-opacity="1" stop-color="rgb(11.77063%, 57.913208%, 91.531372%)" offset="0.554688"/><stop stop-opacity="1" stop-color="rgb(11.369324%, 58.276367%, 91.604614%)" offset="0.558594"/><stop stop-opacity="1" stop-color="rgb(10.968018%, 58.641052%, 91.679382%)" offset="0.5625"/><stop stop-opacity="1" stop-color="rgb(10.566711%, 59.004211%, 91.752625%)" offset="0.566406"/><stop stop-opacity="1" stop-color="rgb(10.165405%, 59.368896%, 91.825867%)" offset="0.570312"/><stop stop-opacity="1" stop-color="rgb(9.764099%, 59.732056%, 91.899109%)" offset="0.574219"/><stop stop-opacity="1" stop-color="rgb(9.364319%, 60.096741%, 91.973877%)" offset="0.578125"/><stop stop-opacity="1" stop-color="rgb(8.963013%, 60.4599%, 92.047119%)" offset="0.582031"/><stop stop-opacity="1" stop-color="rgb(8.561707%, 60.824585%, 92.121887%)" offset="0.585937"/><stop stop-opacity="1" stop-color="rgb(8.1604%, 61.18927%, 92.195129%)" offset="0.589844"/><stop stop-opacity="1" stop-color="rgb(7.759094%, 61.553955%, 92.269897%)" offset="0.59375"/><stop stop-opacity="1" stop-color="rgb(7.357788%, 61.917114%, 92.34314%)" offset="0.597656"/><stop stop-opacity="1" stop-color="rgb(6.958008%, 62.281799%, 92.417908%)" offset="0.601562"/><stop stop-opacity="1" stop-color="rgb(6.556702%, 62.644958%, 92.49115%)" offset="0.605469"/><stop stop-opacity="1" stop-color="rgb(6.155396%, 63.009644%, 92.564392%)" offset="0.609375"/><stop stop-opacity="1" stop-color="rgb(5.754089%, 63.372803%, 92.637634%)" offset="0.613281"/><stop stop-opacity="1" stop-color="rgb(5.354309%, 63.737488%, 92.712402%)" offset="0.617188"/><stop stop-opacity="1" stop-color="rgb(4.953003%, 64.102173%, 92.785645%)" offset="0.621094"/><stop stop-opacity="1" stop-color="rgb(4.551697%, 64.466858%, 92.860413%)" offset="0.625"/><stop stop-opacity="1" stop-color="rgb(4.150391%, 64.830017%, 92.933655%)" offset="0.628906"/><stop stop-opacity="1" stop-color="rgb(3.749084%, 65.194702%, 93.008423%)" offset="0.632812"/><stop stop-opacity="1" stop-color="rgb(3.347778%, 65.557861%, 93.081665%)" offset="0.636719"/><stop stop-opacity="1" stop-color="rgb(2.947998%, 65.922546%, 93.156433%)" offset="0.640625"/><stop stop-opacity="1" stop-color="rgb(2.546692%, 66.285706%, 93.229675%)" offset="0.644531"/><stop stop-opacity="1" stop-color="rgb(2.145386%, 66.650391%, 93.304443%)" offset="0.648438"/><stop stop-opacity="1" stop-color="rgb(1.74408%, 67.01355%, 93.377686%)" offset="0.652344"/><stop stop-opacity="1" stop-color="rgb(1.342773%, 67.378235%, 93.450928%)" offset="0.65625"/><stop stop-opacity="1" stop-color="rgb(0.941467%, 67.74292%, 93.52417%)" offset="0.660156"/><stop stop-opacity="1" stop-color="rgb(0.541687%, 68.107605%, 93.598938%)" offset="0.664063"/><stop stop-opacity="1" stop-color="rgb(0.270081%, 68.466187%, 93.670654%)" offset="0.667969"/><stop stop-opacity="1" stop-color="rgb(0%, 68.824768%, 93.743896%)" offset="0.671875"/><stop stop-opacity="1" stop-color="rgb(0%, 69.171143%, 93.814087%)" offset="0.675781"/><stop stop-opacity="1" stop-color="rgb(0%, 69.517517%, 93.884277%)" offset="0.679688"/><stop stop-opacity="1" stop-color="rgb(0%, 69.863892%, 93.952942%)" offset="0.683594"/><stop stop-opacity="1" stop-color="rgb(0%, 70.211792%, 94.023132%)" offset="0.6875"/><stop stop-opacity="1" stop-color="rgb(0%, 70.558167%, 94.091797%)" offset="0.691406"/><stop stop-opacity="1" stop-color="rgb(0%, 70.906067%, 94.161987%)" offset="0.695312"/><stop stop-opacity="1" stop-color="rgb(0%, 71.252441%, 94.230652%)" offset="0.699219"/><stop stop-opacity="1" stop-color="rgb(0%, 71.598816%, 94.300842%)" offset="0.703125"/><stop stop-opacity="1" stop-color="rgb(0%, 71.94519%, 94.369507%)" offset="0.707031"/><stop stop-opacity="1" stop-color="rgb(0%, 72.293091%, 94.439697%)" offset="0.710937"/><stop stop-opacity="1" stop-color="rgb(0%, 72.639465%, 94.509888%)" offset="0.714844"/><stop stop-opacity="1" stop-color="rgb(0%, 72.987366%, 94.580078%)" offset="0.71875"/><stop stop-opacity="1" stop-color="rgb(0%, 73.33374%, 94.648743%)" offset="0.722656"/><stop stop-opacity="1" stop-color="rgb(0%, 73.681641%, 94.718933%)" offset="0.726562"/><stop stop-opacity="1" stop-color="rgb(0%, 74.028015%, 94.787598%)" offset="0.730469"/><stop stop-opacity="1" stop-color="rgb(0%, 74.37439%, 94.857788%)" offset="0.734375"/><stop stop-opacity="1" stop-color="rgb(0%, 74.720764%, 94.926453%)" offset="0.738281"/><stop stop-opacity="1" stop-color="rgb(0%, 75.068665%, 94.996643%)" offset="0.742188"/><stop stop-opacity="1" stop-color="rgb(0%, 75.415039%, 95.066833%)" offset="0.746094"/><stop stop-opacity="1" stop-color="rgb(0%, 75.762939%, 95.137024%)" offset="0.75"/><stop stop-opacity="1" stop-color="rgb(0%, 76.109314%, 95.205688%)" offset="0.753906"/><stop stop-opacity="1" stop-color="rgb(0%, 76.457214%, 95.275879%)" offset="0.757812"/><stop stop-opacity="1" stop-color="rgb(0%, 76.803589%, 95.344543%)" offset="0.761719"/><stop stop-opacity="1" stop-color="rgb(0%, 77.149963%, 95.414734%)" offset="0.765625"/><stop stop-opacity="1" stop-color="rgb(0%, 77.496338%, 95.483398%)" offset="0.769531"/><stop stop-opacity="1" stop-color="rgb(0%, 77.844238%, 95.553589%)" offset="0.773438"/><stop stop-opacity="1" stop-color="rgb(0%, 78.190613%, 95.623779%)" offset="0.777344"/><stop stop-opacity="1" stop-color="rgb(0%, 78.538513%, 95.69397%)" offset="0.78125"/><stop stop-opacity="1" stop-color="rgb(0%, 78.884888%, 95.762634%)" offset="0.785156"/><stop stop-opacity="1" stop-color="rgb(0%, 79.231262%, 95.832825%)" offset="0.789063"/><stop stop-opacity="1" stop-color="rgb(0%, 79.577637%, 95.901489%)" offset="0.792969"/><stop stop-opacity="1" stop-color="rgb(0%, 79.925537%, 95.97168%)" offset="0.796875"/><stop stop-opacity="1" stop-color="rgb(0%, 80.271912%, 96.040344%)" offset="0.800781"/><stop stop-opacity="1" stop-color="rgb(0%, 80.619812%, 96.110535%)" offset="0.804688"/><stop stop-opacity="1" stop-color="rgb(0%, 80.966187%, 96.180725%)" offset="0.808594"/><stop stop-opacity="1" stop-color="rgb(0%, 81.314087%, 96.250916%)" offset="0.8125"/><stop stop-opacity="1" stop-color="rgb(0%, 81.660461%, 96.31958%)" offset="0.816406"/><stop stop-opacity="1" stop-color="rgb(0%, 82.006836%, 96.389771%)" offset="0.820313"/><stop stop-opacity="1" stop-color="rgb(0%, 82.35321%, 96.458435%)" offset="0.824219"/><stop stop-opacity="1" stop-color="rgb(0%, 82.701111%, 96.528625%)" offset="0.828125"/><stop stop-opacity="1" stop-color="rgb(0%, 83.047485%, 96.59729%)" offset="0.832031"/><stop stop-opacity="1" stop-color="rgb(0%, 83.395386%, 96.66748%)" offset="0.835938"/><stop stop-opacity="1" stop-color="rgb(0%, 83.74176%, 96.736145%)" offset="0.839844"/><stop stop-opacity="1" stop-color="rgb(0%, 84.088135%, 96.806335%)" offset="0.84375"/><stop stop-opacity="1" stop-color="rgb(0%, 84.434509%, 96.876526%)" offset="0.847656"/><stop stop-opacity="1" stop-color="rgb(0%, 84.78241%, 96.946716%)" offset="0.851562"/><stop stop-opacity="1" stop-color="rgb(0%, 85.128784%, 97.015381%)" offset="0.855469"/><stop stop-opacity="1" stop-color="rgb(0%, 85.476685%, 97.085571%)" offset="0.859375"/><stop stop-opacity="1" stop-color="rgb(0%, 85.823059%, 97.154236%)" offset="0.863281"/><stop stop-opacity="1" stop-color="rgb(0%, 86.170959%, 97.224426%)" offset="0.867188"/><stop stop-opacity="1" stop-color="rgb(0%, 86.517334%, 97.293091%)" offset="0.871094"/><stop stop-opacity="1" stop-color="rgb(0%, 86.863708%, 97.363281%)" offset="0.875"/><stop stop-opacity="1" stop-color="rgb(0%, 87.210083%, 97.433472%)" offset="0.878906"/><stop stop-opacity="1" stop-color="rgb(0%, 87.557983%, 97.503662%)" offset="0.882813"/><stop stop-opacity="1" stop-color="rgb(0%, 87.904358%, 97.572327%)" offset="0.886719"/><stop stop-opacity="1" stop-color="rgb(0%, 88.252258%, 97.642517%)" offset="0.890625"/><stop stop-opacity="1" stop-color="rgb(0%, 88.598633%, 97.711182%)" offset="0.894531"/><stop stop-opacity="1" stop-color="rgb(0%, 88.946533%, 97.781372%)" offset="0.898438"/><stop stop-opacity="1" stop-color="rgb(0%, 89.292908%, 97.850037%)" offset="0.902344"/><stop stop-opacity="1" stop-color="rgb(0%, 89.639282%, 97.920227%)" offset="0.90625"/><stop stop-opacity="1" stop-color="rgb(0%, 89.985657%, 97.990417%)" offset="0.910156"/><stop stop-opacity="1" stop-color="rgb(0%, 90.333557%, 98.060608%)" offset="0.914062"/><stop stop-opacity="1" stop-color="rgb(0%, 90.679932%, 98.129272%)" offset="0.917969"/><stop stop-opacity="1" stop-color="rgb(0%, 91.027832%, 98.199463%)" offset="0.921875"/><stop stop-opacity="1" stop-color="rgb(0%, 91.374207%, 98.268127%)" offset="0.925781"/><stop stop-opacity="1" stop-color="rgb(0%, 91.720581%, 98.338318%)" offset="0.929688"/><stop stop-opacity="1" stop-color="rgb(0%, 92.066956%, 98.406982%)" offset="0.933594"/><stop stop-opacity="1" stop-color="rgb(0%, 92.414856%, 98.477173%)" offset="0.9375"/><stop stop-opacity="1" stop-color="rgb(0%, 92.76123%, 98.545837%)" offset="0.941406"/><stop stop-opacity="1" stop-color="rgb(0%, 93.109131%, 98.616028%)" offset="0.945312"/><stop stop-opacity="1" stop-color="rgb(0%, 93.455505%, 98.686218%)" offset="0.949219"/><stop stop-opacity="1" stop-color="rgb(0%, 93.803406%, 98.756409%)" offset="0.953125"/><stop stop-opacity="1" stop-color="rgb(0%, 94.14978%, 98.825073%)" offset="0.957031"/><stop stop-opacity="1" stop-color="rgb(0%, 94.496155%, 98.895264%)" offset="0.960938"/><stop stop-opacity="1" stop-color="rgb(0%, 94.842529%, 98.963928%)" offset="0.964844"/><stop stop-opacity="1" stop-color="rgb(0%, 95.19043%, 99.034119%)" offset="0.96875"/><stop stop-opacity="1" stop-color="rgb(0%, 95.536804%, 99.102783%)" offset="0.972656"/><stop stop-opacity="1" stop-color="rgb(0%, 95.884705%, 99.172974%)" offset="0.976563"/><stop stop-opacity="1" stop-color="rgb(0%, 96.231079%, 99.243164%)" offset="0.980469"/><stop stop-opacity="1" stop-color="rgb(0%, 96.577454%, 99.313354%)" offset="0.984375"/><stop stop-opacity="1" stop-color="rgb(0%, 96.923828%, 99.382019%)" offset="0.988281"/><stop stop-opacity="1" stop-color="rgb(0%, 97.271729%, 99.452209%)" offset="0.992188"/><stop stop-opacity="1" stop-color="rgb(0%, 97.618103%, 99.520874%)" offset="0.996094"/><stop stop-opacity="1" stop-color="rgb(0%, 97.966003%, 99.591064%)" offset="1"/></linearGradient></defs><g clip-path="url(#id1)"><g clip-path="url(#id2)"><path fill="url(#id3)" d="M 21.121094 0.773438 L 21.121094 374.25 L 354.121094 374.25 L 354.121094 0.773438 Z M 21.121094 0.773438 " fill-rule="nonzero"/></g></g></svg>