<svg xmlns="http://www.w3.org/2000/svg" xmlns:xlink="http://www.w3.org/1999/xlink" width="500" zoomAndPan="magnify" viewBox="0 0 375 374.999991" height="500" preserveAspectRatio="xMidYMid meet" version="1.0"><defs><clipPath id="id1"><path d="M 127.46875 120.117188 L 247.46875 120.117188 L 247.46875 255.117188 L 127.46875 255.117188 Z M 127.46875 120.117188 " clip-rule="nonzero"/></clipPath><clipPath id="id2"><path d="M 195.347656 128.957031 L 237.339844 153.257812 C 238.191406 152.664062 239.226562 152.320312 240.339844 152.320312 C 241.050781 152.320312 241.734375 152.464844 242.359375 152.726562 C 243.011719 152.996094 243.589844 153.386719 244.074219 153.875 C 244.554688 154.355469 244.949219 154.941406 245.21875 155.59375 C 245.480469 156.222656 245.625 156.90625 245.625 157.617188 C 245.625 158.328125 245.484375 159.015625 245.21875 159.640625 C 244.953125 160.292969 244.5625 160.871094 244.074219 161.359375 C 243.71875 161.714844 243.308594 162.023438 242.859375 162.269531 L 242.855469 162.265625 C 242.773438 162.308594 242.691406 162.351562 242.609375 162.390625 L 242.609375 210.96875 C 242.890625 211.089844 243.175781 211.234375 243.457031 211.398438 C 244.390625 211.9375 245.179688 212.648438 245.804688 213.460938 C 246.449219 214.304688 246.917969 215.261719 247.183594 216.269531 C 248.320312 220.511719 245.796875 224.960938 241.519531 226.105469 C 240.515625 226.371094 239.453125 226.449219 238.398438 226.304688 C 237.519531 226.1875 236.648438 225.925781 235.816406 225.5 L 235.785156 225.5 L 235.429688 225.300781 C 235.15625 225.140625 234.886719 224.960938 234.628906 224.769531 L 193.847656 248.367188 C 193.859375 248.492188 193.859375 248.613281 193.859375 248.738281 C 193.859375 249.59375 193.683594 250.414062 193.371094 251.175781 L 193.371094 251.179688 C 193.046875 251.964844 192.574219 252.667969 191.992188 253.25 C 191.410156 253.832031 190.707031 254.304688 189.921875 254.632812 C 189.167969 254.945312 188.347656 255.117188 187.488281 255.117188 C 186.632812 255.117188 185.808594 254.945312 185.050781 254.632812 C 184.261719 254.304688 183.5625 253.832031 182.980469 253.25 C 182.402344 252.671875 181.929688 251.964844 181.605469 251.179688 C 181.292969 250.425781 181.121094 249.597656 181.121094 248.738281 C 181.121094 248.636719 181.125 248.539062 181.128906 248.4375 L 140.339844 224.832031 C 140.066406 225.035156 139.78125 225.230469 139.488281 225.398438 L 139.484375 225.402344 L 139.480469 225.402344 L 139.476562 225.398438 C 138.535156 225.9375 137.53125 226.269531 136.519531 226.402344 C 135.464844 226.542969 134.40625 226.46875 133.40625 226.203125 C 132.398438 225.933594 131.441406 225.464844 130.605469 224.816406 C 129.796875 224.195312 129.089844 223.402344 128.546875 222.457031 L 128.535156 222.4375 L 128.53125 222.441406 C 127.996094 221.507812 127.671875 220.503906 127.539062 219.484375 C 127.402344 218.425781 127.476562 217.367188 127.742188 216.367188 C 128.011719 215.359375 128.480469 214.402344 129.125 213.558594 C 129.742188 212.75 130.535156 212.042969 131.480469 211.496094 L 131.832031 211.296875 L 131.851562 211.296875 C 131.988281 211.222656 132.128906 211.15625 132.257812 211.097656 L 132.257812 162.5 C 132.140625 162.449219 132.03125 162.398438 131.917969 162.339844 C 131.398438 162.082031 130.933594 161.742188 130.546875 161.355469 C 130.066406 160.871094 129.675781 160.292969 129.40625 159.636719 C 129.148438 159.003906 129 158.324219 129 157.613281 C 129 156.90625 129.140625 156.222656 129.40625 155.59375 L 129.40625 155.589844 C 129.671875 154.941406 130.066406 154.355469 130.550781 153.875 C 131.503906 152.917969 132.828125 152.324219 134.285156 152.324219 C 134.992188 152.324219 135.679688 152.46875 136.300781 152.730469 C 136.695312 152.890625 137.058594 153.101562 137.394531 153.34375 L 179.40625 129.03125 C 179.375 128.746094 179.355469 128.449219 179.355469 128.15625 C 179.355469 127.082031 179.574219 126.039062 179.964844 125.089844 L 179.964844 125.082031 C 180.675781 123.363281 181.5 122.648438 182.847656 121.527344 C 183.304688 121.214844 183.792969 120.953125 184.304688 120.738281 C 185.253906 120.347656 186.292969 120.125 187.371094 120.125 C 188.445312 120.125 189.484375 120.347656 190.429688 120.738281 L 190.4375 120.738281 C 191.421875 121.144531 192.304688 121.742188 193.039062 122.480469 C 193.773438 123.21875 194.371094 124.101562 194.777344 125.089844 L 194.777344 125.09375 C 195.167969 126.042969 195.386719 127.082031 195.386719 128.160156 C 195.386719 128.429688 195.371094 128.695312 195.347656 128.964844 Z M 131.023438 219.347656 Z M 140.097656 218.722656 C 140.371094 213.339844 132.652344 212.019531 131.128906 217.191406 C 131.039062 217.539062 130.988281 217.898438 130.96875 218.261719 C 130.953125 218.625 130.96875 218.988281 131.023438 219.351562 C 132.023438 224.640625 139.832031 224.101562 140.097656 218.726562 Z M 182.902344 127.894531 C 182.882812 128.253906 182.902344 128.621094 182.957031 128.984375 C 183.171875 130.121094 183.792969 131.089844 184.652344 131.753906 C 185.511719 132.421875 186.609375 132.78125 187.765625 132.707031 C 188.925781 132.625 189.964844 132.121094 190.726562 131.34375 C 191.488281 130.566406 191.976562 129.519531 192.035156 128.355469 C 192.09375 127.195312 191.714844 126.101562 191.03125 125.253906 C 190.351562 124.402344 189.371094 123.792969 188.230469 123.597656 C 187.085938 123.398438 185.957031 123.652344 185.035156 124.226562 C 184.113281 124.800781 183.398438 125.710938 183.066406 126.820312 C 182.976562 127.167969 182.925781 127.53125 182.90625 127.894531 Z M 234.910156 218.140625 C 234.890625 218.503906 234.910156 218.871094 234.964844 219.230469 C 235.183594 220.371094 235.800781 221.339844 236.660156 222.003906 C 237.519531 222.667969 238.617188 223.03125 239.777344 222.957031 C 240.933594 222.875 241.972656 222.371094 242.734375 221.59375 C 243.496094 220.816406 243.984375 219.765625 244.042969 218.605469 C 244.101562 217.445312 243.722656 216.351562 243.042969 215.503906 C 242.359375 214.648438 241.378906 214.042969 240.238281 213.84375 C 239.09375 213.648438 237.964844 213.898438 237.042969 214.476562 C 236.121094 215.050781 235.40625 215.957031 235.074219 217.070312 C 234.984375 217.417969 234.933594 217.78125 234.914062 218.140625 Z M 139.4375 156.472656 C 139.519531 156.84375 139.5625 157.222656 139.5625 157.613281 C 139.5625 158.324219 139.421875 159.011719 139.160156 159.636719 C 138.890625 160.289062 138.5 160.867188 138.011719 161.355469 C 137.566406 161.800781 137.042969 162.167969 136.453125 162.4375 C 136.308594 162.503906 136.160156 162.5625 136.003906 162.613281 L 136.003906 210.4375 C 136.308594 210.457031 136.601562 210.496094 136.894531 210.546875 L 181.320312 133.421875 C 181.09375 133.164062 180.882812 132.886719 180.695312 132.605469 L 139.433594 156.484375 Z M 180.535156 189.019531 L 180.65625 189.082031 L 180.660156 189.082031 C 180.921875 189.222656 181.171875 189.382812 181.40625 189.5625 L 208.582031 173.832031 C 208.519531 173.511719 208.488281 173.183594 208.488281 172.863281 C 208.488281 172.15625 208.632812 171.472656 208.894531 170.84375 L 208.894531 170.839844 C 209.136719 170.253906 209.472656 169.726562 209.894531 169.277344 L 190.472656 135.5625 C 190.226562 135.664062 189.976562 135.757812 189.722656 135.832031 L 189.71875 135.832031 C 189.152344 136.007812 188.570312 136.117188 187.972656 136.167969 L 180.539062 189.023438 Z M 183.371094 192.742188 C 183.4375 193.074219 183.46875 193.414062 183.46875 193.757812 L 183.46875 193.890625 L 232.8125 213.851562 C 233.144531 213.351562 233.523438 212.902344 233.9375 212.511719 C 234.125 212.335938 234.316406 212.167969 234.519531 212.011719 L 214.941406 178.019531 C 214.566406 178.105469 214.175781 178.152344 213.777344 178.152344 C 213.070312 178.152344 212.382812 178.007812 211.761719 177.746094 C 211.308594 177.558594 210.894531 177.316406 210.527344 177.023438 L 183.378906 192.734375 Z M 182.054688 197.359375 C 182.011719 197.40625 181.964844 197.457031 181.921875 197.5 C 180.96875 198.457031 179.644531 199.050781 178.1875 199.050781 C 177.480469 199.050781 176.792969 198.90625 176.167969 198.644531 C 175.628906 198.421875 175.140625 198.117188 174.71875 197.746094 L 143.125 216.027344 C 143.191406 216.238281 143.25 216.449219 143.296875 216.664062 L 143.296875 216.667969 C 143.335938 216.847656 143.375 217.019531 143.398438 217.199219 L 231.101562 217.199219 L 182.054688 197.363281 Z M 172.953125 194.449219 C 172.921875 194.21875 172.902344 193.984375 172.902344 193.757812 C 172.902344 193.054688 173.046875 192.371094 173.308594 191.738281 L 173.308594 191.734375 C 173.578125 191.089844 173.96875 190.503906 174.453125 190.019531 C 174.925781 189.546875 175.492188 189.164062 176.125 188.894531 C 176.347656 188.800781 176.574219 188.722656 176.8125 188.660156 L 184.238281 135.824219 L 140.332031 212.054688 C 140.460938 212.152344 140.578125 212.25 140.703125 212.359375 C 140.878906 212.503906 141.042969 212.667969 141.207031 212.832031 L 172.957031 194.460938 Z M 213.769531 167.570312 C 214.476562 167.570312 215.164062 167.714844 215.789062 167.976562 C 216.4375 168.246094 217.015625 168.636719 217.503906 169.125 C 217.984375 169.609375 218.375 170.191406 218.648438 170.84375 C 218.90625 171.472656 219.054688 172.15625 219.054688 172.867188 C 219.054688 173.578125 218.910156 174.265625 218.648438 174.890625 C 218.488281 175.273438 218.285156 175.632812 218.050781 175.960938 L 237.921875 210.460938 C 238.230469 210.402344 238.542969 210.359375 238.859375 210.335938 L 238.859375 162.691406 C 238.675781 162.636719 238.492188 162.570312 238.320312 162.5 C 237.664062 162.226562 237.085938 161.832031 236.601562 161.355469 C 236.121094 160.871094 235.734375 160.292969 235.460938 159.636719 C 235.203125 159.007812 235.058594 158.324219 235.058594 157.613281 C 235.058594 157.183594 235.109375 156.757812 235.214844 156.347656 L 194.078125 132.542969 L 193.511719 133.355469 L 213.234375 167.597656 C 213.414062 167.582031 213.589844 167.570312 213.769531 167.570312 Z M 143.097656 220.949219 C 142.996094 221.261719 142.871094 221.574219 142.722656 221.882812 L 182.378906 244.832031 L 182.996094 244.21875 C 184.148438 243.058594 185.738281 242.347656 187.5 242.347656 C 188.351562 242.347656 189.175781 242.519531 189.933594 242.832031 L 189.9375 242.832031 C 190.722656 243.160156 191.421875 243.632812 192.003906 244.21875 C 192.1875 244.398438 192.367188 244.601562 192.527344 244.8125 L 232.234375 221.835938 C 232.09375 221.542969 231.96875 221.25 231.867188 220.949219 Z M 143.097656 220.949219 " clip-rule="nonzero"/></clipPath><linearGradient x1="15.76649" gradientTransform="matrix(0.445545, 0, 0, 0.446576, 127.476182, 120.118007)" y1="314.838832" x2="267.205782" gradientUnits="userSpaceOnUse" y2="-1.656968" id="id3"><stop stop-opacity="1" stop-color="rgb(74.024963%, 1.513672%, 80.296326%)" offset="0"/><stop stop-opacity="1" stop-color="rgb(73.553467%, 1.939392%, 80.380249%)" offset="0.00390625"/><stop stop-opacity="1" stop-color="rgb(73.083496%, 2.365112%, 80.464172%)" offset="0.0078125"/><stop stop-opacity="1" stop-color="rgb(72.613525%, 2.789307%, 80.54657%)" offset="0.0117188"/><stop stop-opacity="1" stop-color="rgb(72.143555%, 3.215027%, 80.630493%)" offset="0.015625"/><stop stop-opacity="1" stop-color="rgb(71.673584%, 3.640747%, 80.714417%)" offset="0.0195312"/><stop stop-opacity="1" stop-color="rgb(71.203613%, 4.066467%, 80.79834%)" offset="0.0234375"/><stop stop-opacity="1" stop-color="rgb(70.732117%, 4.490662%, 80.882263%)" offset="0.0273438"/><stop stop-opacity="1" stop-color="rgb(70.262146%, 4.916382%, 80.966187%)" offset="0.03125"/><stop stop-opacity="1" stop-color="rgb(69.792175%, 5.342102%, 81.048584%)" offset="0.0351562"/><stop stop-opacity="1" stop-color="rgb(69.322205%, 5.767822%, 81.132507%)" offset="0.0390625"/><stop stop-opacity="1" stop-color="rgb(68.850708%, 6.193542%, 81.216431%)" offset="0.0429688"/><stop stop-opacity="1" stop-color="rgb(68.380737%, 6.619263%, 81.300354%)" offset="0.046875"/><stop stop-opacity="1" stop-color="rgb(67.910767%, 7.043457%, 81.382751%)" offset="0.0507812"/><stop stop-opacity="1" stop-color="rgb(67.440796%, 7.469177%, 81.466675%)" offset="0.0546875"/><stop stop-opacity="1" stop-color="rgb(66.969299%, 7.894897%, 81.550598%)" offset="0.0585938"/><stop stop-opacity="1" stop-color="rgb(66.499329%, 8.320618%, 81.634521%)" offset="0.0625"/><stop stop-opacity="1" stop-color="rgb(66.029358%, 8.744812%, 81.716919%)" offset="0.0664063"/><stop stop-opacity="1" stop-color="rgb(65.559387%, 9.170532%, 81.800842%)" offset="0.0703125"/><stop stop-opacity="1" stop-color="rgb(65.087891%, 9.596252%, 81.884766%)" offset="0.0742188"/><stop stop-opacity="1" stop-color="rgb(64.61792%, 10.021973%, 81.968689%)" offset="0.078125"/><stop stop-opacity="1" stop-color="rgb(64.147949%, 10.447693%, 82.051086%)" offset="0.0820313"/><stop stop-opacity="1" stop-color="rgb(63.677979%, 10.873413%, 82.13501%)" offset="0.0859375"/><stop stop-opacity="1" stop-color="rgb(63.206482%, 11.297607%, 82.218933%)" offset="0.0898438"/><stop stop-opacity="1" stop-color="rgb(62.736511%, 11.723328%, 82.302856%)" offset="0.09375"/><stop stop-opacity="1" stop-color="rgb(62.266541%, 12.149048%, 82.38678%)" offset="0.0976562"/><stop stop-opacity="1" stop-color="rgb(61.79657%, 12.574768%, 82.470703%)" offset="0.101562"/><stop stop-opacity="1" stop-color="rgb(61.325073%, 12.998962%, 82.553101%)" offset="0.105469"/><stop stop-opacity="1" stop-color="rgb(60.855103%, 13.424683%, 82.637024%)" offset="0.109375"/><stop stop-opacity="1" stop-color="rgb(60.385132%, 13.850403%, 82.720947%)" offset="0.113281"/><stop stop-opacity="1" stop-color="rgb(59.915161%, 14.276123%, 82.804871%)" offset="0.117188"/><stop stop-opacity="1" stop-color="rgb(59.443665%, 14.701843%, 82.887268%)" offset="0.121094"/><stop stop-opacity="1" stop-color="rgb(58.973694%, 15.127563%, 82.971191%)" offset="0.125"/><stop stop-opacity="1" stop-color="rgb(58.503723%, 15.551758%, 83.055115%)" offset="0.128906"/><stop stop-opacity="1" stop-color="rgb(58.033752%, 15.977478%, 83.139038%)" offset="0.132812"/><stop stop-opacity="1" stop-color="rgb(57.562256%, 16.403198%, 83.221436%)" offset="0.136719"/><stop stop-opacity="1" stop-color="rgb(57.092285%, 16.828918%, 83.305359%)" offset="0.140625"/><stop stop-opacity="1" stop-color="rgb(56.622314%, 17.253113%, 83.389282%)" offset="0.144531"/><stop stop-opacity="1" stop-color="rgb(56.152344%, 17.678833%, 83.473206%)" offset="0.148437"/><stop stop-opacity="1" stop-color="rgb(55.682373%, 18.104553%, 83.555603%)" offset="0.152344"/><stop stop-opacity="1" stop-color="rgb(55.212402%, 18.530273%, 83.639526%)" offset="0.15625"/><stop stop-opacity="1" stop-color="rgb(54.740906%, 18.955994%, 83.72345%)" offset="0.160156"/><stop stop-opacity="1" stop-color="rgb(54.270935%, 19.381714%, 83.807373%)" offset="0.164062"/><stop stop-opacity="1" stop-color="rgb(53.800964%, 19.805908%, 83.891296%)" offset="0.167969"/><stop stop-opacity="1" stop-color="rgb(53.330994%, 20.231628%, 83.97522%)" offset="0.171875"/><stop stop-opacity="1" stop-color="rgb(52.859497%, 20.657349%, 84.057617%)" offset="0.175781"/><stop stop-opacity="1" stop-color="rgb(52.389526%, 21.083069%, 84.141541%)" offset="0.179687"/><stop stop-opacity="1" stop-color="rgb(51.919556%, 21.508789%, 84.225464%)" offset="0.183594"/><stop stop-opacity="1" stop-color="rgb(51.449585%, 21.934509%, 84.309387%)" offset="0.1875"/><stop stop-opacity="1" stop-color="rgb(50.978088%, 22.358704%, 84.391785%)" offset="0.191406"/><stop stop-opacity="1" stop-color="rgb(50.508118%, 22.784424%, 84.475708%)" offset="0.195312"/><stop stop-opacity="1" stop-color="rgb(50.038147%, 23.210144%, 84.559631%)" offset="0.199219"/><stop stop-opacity="1" stop-color="rgb(49.568176%, 23.635864%, 84.643555%)" offset="0.203125"/><stop stop-opacity="1" stop-color="rgb(49.09668%, 24.060059%, 84.725952%)" offset="0.207031"/><stop stop-opacity="1" stop-color="rgb(48.626709%, 24.485779%, 84.809875%)" offset="0.210938"/><stop stop-opacity="1" stop-color="rgb(48.156738%, 24.911499%, 84.893799%)" offset="0.214844"/><stop stop-opacity="1" stop-color="rgb(47.686768%, 25.337219%, 84.977722%)" offset="0.21875"/><stop stop-opacity="1" stop-color="rgb(47.215271%, 25.762939%, 85.061646%)" offset="0.222656"/><stop stop-opacity="1" stop-color="rgb(46.7453%, 26.18866%, 85.145569%)" offset="0.226562"/><stop stop-opacity="1" stop-color="rgb(46.27533%, 26.612854%, 85.227966%)" offset="0.230469"/><stop stop-opacity="1" stop-color="rgb(45.805359%, 27.038574%, 85.31189%)" offset="0.234375"/><stop stop-opacity="1" stop-color="rgb(45.333862%, 27.464294%, 85.395813%)" offset="0.238281"/><stop stop-opacity="1" stop-color="rgb(44.863892%, 27.890015%, 85.479736%)" offset="0.242188"/><stop stop-opacity="1" stop-color="rgb(44.393921%, 28.314209%, 85.562134%)" offset="0.246094"/><stop stop-opacity="1" stop-color="rgb(43.92395%, 28.739929%, 85.646057%)" offset="0.25"/><stop stop-opacity="1" stop-color="rgb(43.452454%, 29.165649%, 85.72998%)" offset="0.253906"/><stop stop-opacity="1" stop-color="rgb(42.982483%, 29.59137%, 85.813904%)" offset="0.257812"/><stop stop-opacity="1" stop-color="rgb(42.512512%, 30.01709%, 85.896301%)" offset="0.261719"/><stop stop-opacity="1" stop-color="rgb(42.042542%, 30.44281%, 85.980225%)" offset="0.265625"/><stop stop-opacity="1" stop-color="rgb(41.571045%, 30.867004%, 86.064148%)" offset="0.269531"/><stop stop-opacity="1" stop-color="rgb(41.101074%, 31.292725%, 86.148071%)" offset="0.273438"/><stop stop-opacity="1" stop-color="rgb(40.631104%, 31.718445%, 86.230469%)" offset="0.277344"/><stop stop-opacity="1" stop-color="rgb(40.161133%, 32.144165%, 86.314392%)" offset="0.28125"/><stop stop-opacity="1" stop-color="rgb(39.691162%, 32.568359%, 86.398315%)" offset="0.285156"/><stop stop-opacity="1" stop-color="rgb(39.221191%, 32.99408%, 86.482239%)" offset="0.289063"/><stop stop-opacity="1" stop-color="rgb(38.749695%, 33.4198%, 86.566162%)" offset="0.292969"/><stop stop-opacity="1" stop-color="rgb(38.279724%, 33.84552%, 86.650085%)" offset="0.296875"/><stop stop-opacity="1" stop-color="rgb(37.857056%, 34.22699%, 86.726379%)" offset="0.300781"/><stop stop-opacity="1" stop-color="rgb(37.435913%, 34.609985%, 86.802673%)" offset="0.304688"/><stop stop-opacity="1" stop-color="rgb(37.034607%, 34.973145%, 86.875916%)" offset="0.308594"/><stop stop-opacity="1" stop-color="rgb(36.634827%, 35.33783%, 86.950684%)" offset="0.3125"/><stop stop-opacity="1" stop-color="rgb(36.233521%, 35.702515%, 87.023926%)" offset="0.316406"/><stop stop-opacity="1" stop-color="rgb(35.832214%, 36.0672%, 87.098694%)" offset="0.320313"/><stop stop-opacity="1" stop-color="rgb(35.430908%, 36.430359%, 87.171936%)" offset="0.324219"/><stop stop-opacity="1" stop-color="rgb(35.029602%, 36.795044%, 87.246704%)" offset="0.328125"/><stop stop-opacity="1" stop-color="rgb(34.628296%, 37.158203%, 87.319946%)" offset="0.332031"/><stop stop-opacity="1" stop-color="rgb(34.228516%, 37.522888%, 87.393188%)" offset="0.335938"/><stop stop-opacity="1" stop-color="rgb(33.827209%, 37.886047%, 87.466431%)" offset="0.339844"/><stop stop-opacity="1" stop-color="rgb(33.425903%, 38.250732%, 87.541199%)" offset="0.34375"/><stop stop-opacity="1" stop-color="rgb(33.024597%, 38.615417%, 87.614441%)" offset="0.347656"/><stop stop-opacity="1" stop-color="rgb(32.623291%, 38.980103%, 87.689209%)" offset="0.351563"/><stop stop-opacity="1" stop-color="rgb(32.221985%, 39.343262%, 87.762451%)" offset="0.355469"/><stop stop-opacity="1" stop-color="rgb(31.822205%, 39.707947%, 87.837219%)" offset="0.359375"/><stop stop-opacity="1" stop-color="rgb(31.420898%, 40.071106%, 87.910461%)" offset="0.363281"/><stop stop-opacity="1" stop-color="rgb(31.019592%, 40.435791%, 87.985229%)" offset="0.367188"/><stop stop-opacity="1" stop-color="rgb(30.618286%, 40.79895%, 88.058472%)" offset="0.371094"/><stop stop-opacity="1" stop-color="rgb(30.21698%, 41.163635%, 88.13324%)" offset="0.375"/><stop stop-opacity="1" stop-color="rgb(29.815674%, 41.526794%, 88.206482%)" offset="0.378906"/><stop stop-opacity="1" stop-color="rgb(29.415894%, 41.891479%, 88.279724%)" offset="0.382813"/><stop stop-opacity="1" stop-color="rgb(29.014587%, 42.256165%, 88.352966%)" offset="0.386719"/><stop stop-opacity="1" stop-color="rgb(28.613281%, 42.62085%, 88.427734%)" offset="0.390625"/><stop stop-opacity="1" stop-color="rgb(28.211975%, 42.984009%, 88.500977%)" offset="0.394531"/><stop stop-opacity="1" stop-color="rgb(27.812195%, 43.348694%, 88.575745%)" offset="0.398438"/><stop stop-opacity="1" stop-color="rgb(27.410889%, 43.711853%, 88.648987%)" offset="0.402344"/><stop stop-opacity="1" stop-color="rgb(27.009583%, 44.076538%, 88.723755%)" offset="0.40625"/><stop stop-opacity="1" stop-color="rgb(26.608276%, 44.439697%, 88.796997%)" offset="0.410156"/><stop stop-opacity="1" stop-color="rgb(26.20697%, 44.804382%, 88.871765%)" offset="0.414063"/><stop stop-opacity="1" stop-color="rgb(25.805664%, 45.169067%, 88.945007%)" offset="0.417969"/><stop stop-opacity="1" stop-color="rgb(25.405884%, 45.533752%, 89.019775%)" offset="0.421875"/><stop stop-opacity="1" stop-color="rgb(25.004578%, 45.896912%, 89.093018%)" offset="0.425781"/><stop stop-opacity="1" stop-color="rgb(24.603271%, 46.261597%, 89.16626%)" offset="0.429688"/><stop stop-opacity="1" stop-color="rgb(24.201965%, 46.624756%, 89.239502%)" offset="0.433594"/><stop stop-opacity="1" stop-color="rgb(23.800659%, 46.989441%, 89.31427%)" offset="0.4375"/><stop stop-opacity="1" stop-color="rgb(23.399353%, 47.3526%, 89.387512%)" offset="0.441406"/><stop stop-opacity="1" stop-color="rgb(22.999573%, 47.717285%, 89.46228%)" offset="0.445313"/><stop stop-opacity="1" stop-color="rgb(22.598267%, 48.08197%, 89.535522%)" offset="0.449219"/><stop stop-opacity="1" stop-color="rgb(22.19696%, 48.446655%, 89.610291%)" offset="0.453125"/><stop stop-opacity="1" stop-color="rgb(21.795654%, 48.809814%, 89.683533%)" offset="0.457031"/><stop stop-opacity="1" stop-color="rgb(21.394348%, 49.1745%, 89.758301%)" offset="0.460938"/><stop stop-opacity="1" stop-color="rgb(20.993042%, 49.537659%, 89.831543%)" offset="0.464844"/><stop stop-opacity="1" stop-color="rgb(20.593262%, 49.902344%, 89.906311%)" offset="0.46875"/><stop stop-opacity="1" stop-color="rgb(20.191956%, 50.265503%, 89.979553%)" offset="0.472656"/><stop stop-opacity="1" stop-color="rgb(19.790649%, 50.630188%, 90.052795%)" offset="0.476563"/><stop stop-opacity="1" stop-color="rgb(19.389343%, 50.994873%, 90.126038%)" offset="0.480469"/><stop stop-opacity="1" stop-color="rgb(18.988037%, 51.359558%, 90.200806%)" offset="0.484375"/><stop stop-opacity="1" stop-color="rgb(18.586731%, 51.722717%, 90.274048%)" offset="0.488281"/><stop stop-opacity="1" stop-color="rgb(18.186951%, 52.087402%, 90.348816%)" offset="0.492188"/><stop stop-opacity="1" stop-color="rgb(17.785645%, 52.450562%, 90.422058%)" offset="0.496094"/><stop stop-opacity="1" stop-color="rgb(17.384338%, 52.815247%, 90.496826%)" offset="0.5"/><stop stop-opacity="1" stop-color="rgb(16.983032%, 53.178406%, 90.570068%)" offset="0.503906"/><stop stop-opacity="1" stop-color="rgb(16.581726%, 53.543091%, 90.644836%)" offset="0.507813"/><stop stop-opacity="1" stop-color="rgb(16.18042%, 53.90625%, 90.718079%)" offset="0.511719"/><stop stop-opacity="1" stop-color="rgb(15.78064%, 54.270935%, 90.792847%)" offset="0.515625"/><stop stop-opacity="1" stop-color="rgb(15.379333%, 54.63562%, 90.866089%)" offset="0.519531"/><stop stop-opacity="1" stop-color="rgb(14.978027%, 55.000305%, 90.939331%)" offset="0.523437"/><stop stop-opacity="1" stop-color="rgb(14.576721%, 55.363464%, 91.012573%)" offset="0.527344"/><stop stop-opacity="1" stop-color="rgb(14.176941%, 55.728149%, 91.087341%)" offset="0.53125"/><stop stop-opacity="1" stop-color="rgb(13.775635%, 56.091309%, 91.160583%)" offset="0.535156"/><stop stop-opacity="1" stop-color="rgb(13.374329%, 56.455994%, 91.235352%)" offset="0.539062"/><stop stop-opacity="1" stop-color="rgb(12.973022%, 56.819153%, 91.308594%)" offset="0.542969"/><stop stop-opacity="1" stop-color="rgb(12.571716%, 57.183838%, 91.383362%)" offset="0.546875"/><stop stop-opacity="1" stop-color="rgb(12.17041%, 57.548523%, 91.456604%)" offset="0.550781"/><stop stop-opacity="1" stop-color="rgb(11.77063%, 57.913208%, 91.531372%)" offset="0.554687"/><stop stop-opacity="1" stop-color="rgb(11.369324%, 58.276367%, 91.604614%)" offset="0.558594"/><stop stop-opacity="1" stop-color="rgb(10.968018%, 58.641052%, 91.679382%)" offset="0.5625"/><stop stop-opacity="1" stop-color="rgb(10.566711%, 59.004211%, 91.752625%)" offset="0.566406"/><stop stop-opacity="1" stop-color="rgb(10.165405%, 59.368896%, 91.825867%)" offset="0.570312"/><stop stop-opacity="1" stop-color="rgb(9.764099%, 59.732056%, 91.899109%)" offset="0.574219"/><stop stop-opacity="1" stop-color="rgb(9.364319%, 60.096741%, 91.973877%)" offset="0.578125"/><stop stop-opacity="1" stop-color="rgb(8.963013%, 60.461426%, 92.047119%)" offset="0.582031"/><stop stop-opacity="1" stop-color="rgb(8.561707%, 60.826111%, 92.121887%)" offset="0.585937"/><stop stop-opacity="1" stop-color="rgb(8.1604%, 61.18927%, 92.195129%)" offset="0.589844"/><stop stop-opacity="1" stop-color="rgb(7.759094%, 61.553955%, 92.269897%)" offset="0.59375"/><stop stop-opacity="1" stop-color="rgb(7.357788%, 61.917114%, 92.34314%)" offset="0.597656"/><stop stop-opacity="1" stop-color="rgb(6.958008%, 62.281799%, 92.417908%)" offset="0.601562"/><stop stop-opacity="1" stop-color="rgb(6.556702%, 62.644958%, 92.49115%)" offset="0.605469"/><stop stop-opacity="1" stop-color="rgb(6.155396%, 63.009644%, 92.565918%)" offset="0.609375"/><stop stop-opacity="1" stop-color="rgb(5.754089%, 63.372803%, 92.63916%)" offset="0.613281"/><stop stop-opacity="1" stop-color="rgb(5.352783%, 63.737488%, 92.712402%)" offset="0.617187"/><stop stop-opacity="1" stop-color="rgb(4.951477%, 64.102173%, 92.785645%)" offset="0.621094"/><stop stop-opacity="1" stop-color="rgb(4.551697%, 64.466858%, 92.860413%)" offset="0.625"/><stop stop-opacity="1" stop-color="rgb(4.150391%, 64.830017%, 92.933655%)" offset="0.628906"/><stop stop-opacity="1" stop-color="rgb(3.749084%, 65.194702%, 93.008423%)" offset="0.632812"/><stop stop-opacity="1" stop-color="rgb(3.347778%, 65.557861%, 93.081665%)" offset="0.636719"/><stop stop-opacity="1" stop-color="rgb(2.946472%, 65.922546%, 93.156433%)" offset="0.640625"/><stop stop-opacity="1" stop-color="rgb(2.545166%, 66.285706%, 93.229675%)" offset="0.644531"/><stop stop-opacity="1" stop-color="rgb(2.145386%, 66.650391%, 93.304443%)" offset="0.648437"/><stop stop-opacity="1" stop-color="rgb(1.74408%, 67.015076%, 93.377686%)" offset="0.652344"/><stop stop-opacity="1" stop-color="rgb(1.342773%, 67.379761%, 93.450928%)" offset="0.65625"/><stop stop-opacity="1" stop-color="rgb(0.941467%, 67.74292%, 93.52417%)" offset="0.660156"/><stop stop-opacity="1" stop-color="rgb(0.541687%, 68.107605%, 93.598938%)" offset="0.664063"/><stop stop-opacity="1" stop-color="rgb(0.270081%, 68.466187%, 93.670654%)" offset="0.667969"/><stop stop-opacity="1" stop-color="rgb(0%, 68.824768%, 93.743896%)" offset="0.671875"/><stop stop-opacity="1" stop-color="rgb(0%, 69.171143%, 93.814087%)" offset="0.675781"/><stop stop-opacity="1" stop-color="rgb(0%, 69.519043%, 93.884277%)" offset="0.679688"/><stop stop-opacity="1" stop-color="rgb(0%, 69.865417%, 93.952942%)" offset="0.683594"/><stop stop-opacity="1" stop-color="rgb(0%, 70.211792%, 94.023132%)" offset="0.6875"/><stop stop-opacity="1" stop-color="rgb(0%, 70.558167%, 94.091797%)" offset="0.691406"/><stop stop-opacity="1" stop-color="rgb(0%, 70.906067%, 94.161987%)" offset="0.695313"/><stop stop-opacity="1" stop-color="rgb(0%, 71.252441%, 94.230652%)" offset="0.699219"/><stop stop-opacity="1" stop-color="rgb(0%, 71.600342%, 94.300842%)" offset="0.703125"/><stop stop-opacity="1" stop-color="rgb(0%, 71.946716%, 94.371033%)" offset="0.707031"/><stop stop-opacity="1" stop-color="rgb(0%, 72.293091%, 94.441223%)" offset="0.710938"/><stop stop-opacity="1" stop-color="rgb(0%, 72.639465%, 94.509888%)" offset="0.714844"/><stop stop-opacity="1" stop-color="rgb(0%, 72.987366%, 94.580078%)" offset="0.71875"/><stop stop-opacity="1" stop-color="rgb(0%, 73.33374%, 94.648743%)" offset="0.722656"/><stop stop-opacity="1" stop-color="rgb(0%, 73.681641%, 94.718933%)" offset="0.726563"/><stop stop-opacity="1" stop-color="rgb(0%, 74.028015%, 94.787598%)" offset="0.730469"/><stop stop-opacity="1" stop-color="rgb(0%, 74.375916%, 94.857788%)" offset="0.734375"/><stop stop-opacity="1" stop-color="rgb(0%, 74.72229%, 94.926453%)" offset="0.738281"/><stop stop-opacity="1" stop-color="rgb(0%, 75.068665%, 94.996643%)" offset="0.742188"/><stop stop-opacity="1" stop-color="rgb(0%, 75.415039%, 95.066833%)" offset="0.746094"/><stop stop-opacity="1" stop-color="rgb(0%, 75.762939%, 95.137024%)" offset="0.75"/><stop stop-opacity="1" stop-color="rgb(0%, 76.109314%, 95.205688%)" offset="0.753906"/><stop stop-opacity="1" stop-color="rgb(0%, 76.457214%, 95.275879%)" offset="0.757813"/><stop stop-opacity="1" stop-color="rgb(0%, 76.803589%, 95.344543%)" offset="0.761719"/><stop stop-opacity="1" stop-color="rgb(0%, 77.151489%, 95.414734%)" offset="0.765625"/><stop stop-opacity="1" stop-color="rgb(0%, 77.497864%, 95.483398%)" offset="0.769531"/><stop stop-opacity="1" stop-color="rgb(0%, 77.844238%, 95.553589%)" offset="0.773438"/><stop stop-opacity="1" stop-color="rgb(0%, 78.190613%, 95.623779%)" offset="0.777344"/><stop stop-opacity="1" stop-color="rgb(0%, 78.538513%, 95.69397%)" offset="0.78125"/><stop stop-opacity="1" stop-color="rgb(0%, 78.884888%, 95.762634%)" offset="0.785156"/><stop stop-opacity="1" stop-color="rgb(0%, 79.232788%, 95.832825%)" offset="0.789062"/><stop stop-opacity="1" stop-color="rgb(0%, 79.579163%, 95.901489%)" offset="0.792969"/><stop stop-opacity="1" stop-color="rgb(0%, 79.925537%, 95.97168%)" offset="0.796875"/><stop stop-opacity="1" stop-color="rgb(0%, 80.271912%, 96.040344%)" offset="0.800781"/><stop stop-opacity="1" stop-color="rgb(0%, 80.619812%, 96.110535%)" offset="0.804688"/><stop stop-opacity="1" stop-color="rgb(0%, 80.966187%, 96.180725%)" offset="0.808594"/><stop stop-opacity="1" stop-color="rgb(0%, 81.314087%, 96.250916%)" offset="0.8125"/><stop stop-opacity="1" stop-color="rgb(0%, 81.660461%, 96.31958%)" offset="0.816406"/><stop stop-opacity="1" stop-color="rgb(0%, 82.008362%, 96.389771%)" offset="0.820312"/><stop stop-opacity="1" stop-color="rgb(0%, 82.354736%, 96.458435%)" offset="0.824219"/><stop stop-opacity="1" stop-color="rgb(0%, 82.701111%, 96.528625%)" offset="0.828125"/><stop stop-opacity="1" stop-color="rgb(0%, 83.047485%, 96.59729%)" offset="0.832031"/><stop stop-opacity="1" stop-color="rgb(0%, 83.395386%, 96.66748%)" offset="0.835938"/><stop stop-opacity="1" stop-color="rgb(0%, 83.74176%, 96.737671%)" offset="0.839844"/><stop stop-opacity="1" stop-color="rgb(0%, 84.089661%, 96.807861%)" offset="0.84375"/><stop stop-opacity="1" stop-color="rgb(0%, 84.436035%, 96.876526%)" offset="0.847656"/><stop stop-opacity="1" stop-color="rgb(0%, 84.783936%, 96.946716%)" offset="0.851562"/><stop stop-opacity="1" stop-color="rgb(0%, 85.13031%, 97.015381%)" offset="0.855469"/><stop stop-opacity="1" stop-color="rgb(0%, 85.476685%, 97.085571%)" offset="0.859375"/><stop stop-opacity="1" stop-color="rgb(0%, 85.823059%, 97.154236%)" offset="0.863281"/><stop stop-opacity="1" stop-color="rgb(0%, 86.170959%, 97.224426%)" offset="0.867188"/><stop stop-opacity="1" stop-color="rgb(0%, 86.517334%, 97.293091%)" offset="0.871094"/><stop stop-opacity="1" stop-color="rgb(0%, 86.865234%, 97.363281%)" offset="0.875"/><stop stop-opacity="1" stop-color="rgb(0%, 87.211609%, 97.433472%)" offset="0.878906"/><stop stop-opacity="1" stop-color="rgb(0%, 87.559509%, 97.503662%)" offset="0.882812"/><stop stop-opacity="1" stop-color="rgb(0%, 87.905884%, 97.572327%)" offset="0.886719"/><stop stop-opacity="1" stop-color="rgb(0%, 88.252258%, 97.642517%)" offset="0.890625"/><stop stop-opacity="1" stop-color="rgb(0%, 88.598633%, 97.711182%)" offset="0.894531"/><stop stop-opacity="1" stop-color="rgb(0%, 88.946533%, 97.781372%)" offset="0.898438"/><stop stop-opacity="1" stop-color="rgb(0%, 89.292908%, 97.850037%)" offset="0.902344"/><stop stop-opacity="1" stop-color="rgb(0%, 89.640808%, 97.920227%)" offset="0.90625"/><stop stop-opacity="1" stop-color="rgb(0%, 89.987183%, 97.990417%)" offset="0.910156"/><stop stop-opacity="1" stop-color="rgb(0%, 90.333557%, 98.060608%)" offset="0.914062"/><stop stop-opacity="1" stop-color="rgb(0%, 90.679932%, 98.129272%)" offset="0.917969"/><stop stop-opacity="1" stop-color="rgb(0%, 91.027832%, 98.199463%)" offset="0.921875"/><stop stop-opacity="1" stop-color="rgb(0%, 91.374207%, 98.268127%)" offset="0.925781"/><stop stop-opacity="1" stop-color="rgb(0%, 91.722107%, 98.338318%)" offset="0.929688"/><stop stop-opacity="1" stop-color="rgb(0%, 92.068481%, 98.406982%)" offset="0.933594"/><stop stop-opacity="1" stop-color="rgb(0%, 92.416382%, 98.477173%)" offset="0.9375"/><stop stop-opacity="1" stop-color="rgb(0%, 92.762756%, 98.547363%)" offset="0.941406"/><stop stop-opacity="1" stop-color="rgb(0%, 93.109131%, 98.617554%)" offset="0.945312"/><stop stop-opacity="1" stop-color="rgb(0%, 93.455505%, 98.686218%)" offset="0.949219"/><stop stop-opacity="1" stop-color="rgb(0%, 93.803406%, 98.756409%)" offset="0.953125"/><stop stop-opacity="1" stop-color="rgb(0%, 94.14978%, 98.825073%)" offset="0.957031"/><stop stop-opacity="1" stop-color="rgb(0%, 94.497681%, 98.895264%)" offset="0.960938"/><stop stop-opacity="1" stop-color="rgb(0%, 94.844055%, 98.963928%)" offset="0.964844"/><stop stop-opacity="1" stop-color="rgb(0%, 95.191956%, 99.034119%)" offset="0.96875"/><stop stop-opacity="1" stop-color="rgb(0%, 95.53833%, 99.104309%)" offset="0.972656"/><stop stop-opacity="1" stop-color="rgb(0%, 95.884705%, 99.1745%)" offset="0.976562"/><stop stop-opacity="1" stop-color="rgb(0%, 96.231079%, 99.243164%)" offset="0.980469"/><stop stop-opacity="1" stop-color="rgb(0%, 96.578979%, 99.313354%)" offset="0.984375"/><stop stop-opacity="1" stop-color="rgb(0%, 96.925354%, 99.382019%)" offset="0.988281"/><stop stop-opacity="1" stop-color="rgb(0%, 97.273254%, 99.452209%)" offset="0.992188"/><stop stop-opacity="1" stop-color="rgb(0%, 97.619629%, 99.520874%)" offset="0.996094"/><stop stop-opacity="1" stop-color="rgb(0%, 97.966003%, 99.591064%)" offset="1"/></linearGradient></defs><g clip-path="url(#id1)"><g clip-path="url(#id2)"><path fill="url(#id3)" d="M 127.46875 120.125 L 127.46875 255.117188 L 247.46875 255.117188 L 247.46875 120.125 Z M 127.46875 120.125 " fill-rule="nonzero"/></g></g></svg>